<svg width="72" height="70" viewBox="0 0 72 70" fill="none" xmlns="http://www.w3.org/2000/svg">
<g clip-path="url(#clip0_229_127)">
<path fill-rule="evenodd" clip-rule="evenodd" d="M37.3875 13.1455L13.527 27.9665L13.5195 27.9724L13.518 27.9768C13.5067 27.9995 13.5005 28.0244 13.5 28.0497C13.5 28.089 13.5075 28.1168 13.515 28.1299C13.515 28.1357 13.518 28.1372 13.518 28.1386H13.5195L13.5285 28.1474L37.389 45.1822L61.4715 28.1474L61.482 28.1386L61.4835 28.1357L61.4865 28.1313C61.4971 28.1059 61.5017 28.0785 61.5 28.0511C61.4997 28.0254 61.4936 28 61.482 27.9768L61.4805 27.9724L61.473 27.968L37.389 13.1455H37.3875ZM38.9385 22.314L52.932 30.9255L50.322 32.7718L37.3875 24.8122L24.579 32.7688L21.987 30.9168L35.8275 22.3213C36.2912 22.0314 36.8306 21.8766 37.3819 21.8753C37.9332 21.874 38.4734 22.0262 38.9385 22.314Z" fill="#F24E1E"/>
<path fill-rule="evenodd" clip-rule="evenodd" d="M0 0H72V70H0V0ZM11.9115 25.5092C10.0995 26.635 10.0155 29.2571 11.7525 30.4967L35.6685 47.5738C36.696 48.3058 38.0685 48.3088 39.0975 47.581L63.2355 30.5054C64.9875 29.2658 64.9035 26.6263 63.078 25.5033L38.9385 10.6473C38.4734 10.3595 37.9332 10.2072 37.3819 10.2085C36.8306 10.2098 36.2912 10.3646 35.8275 10.6546L11.91 25.5092H11.9115ZM13.8555 35.9683L16.4475 37.8204L13.527 39.6331C13.5244 39.6349 13.5219 39.6369 13.5195 39.639L13.518 39.6433C13.5067 39.6661 13.5005 39.691 13.5 39.7163C13.5 39.7556 13.5075 39.7833 13.515 39.7965C13.515 39.8023 13.518 39.8052 13.518 39.8052L13.5285 39.814L37.389 56.8488L61.389 39.8737C60.258 43.031 61.1175 40.6481 61.398 39.865L61.4715 39.814L61.482 39.8052L61.4835 39.8023L61.4865 39.7979C61.4971 39.7725 61.5017 39.7451 61.5 39.7177C61.4997 39.6919 61.4936 39.6665 61.482 39.6433L61.4805 39.639L61.398 39.865L61.3875 39.8723L61.473 39.6346L58.503 37.8058L61.113 35.961L63.078 37.17C64.9035 38.2929 64.9875 40.9325 63.2355 42.1721L39.099 59.2477C38.07 59.9769 36.6975 59.9725 35.67 59.2404L11.7525 42.1633C10.0155 40.9238 10.0995 38.3017 11.9115 37.1758L13.8555 35.9683Z" fill="#F24E1E"/>
</g>
<defs>
<clipPath id="clip0_229_127">
<rect width="72" height="70" fill="white"/>
</clipPath>
</defs>
</svg>
